<?xml version="1.0" standalone="no"?>
<!DOCTYPE svg PUBLIC "-//W3C//DTD SVG 20010904//EN"
 "http://www.w3.org/TR/2001/REC-SVG-20010904/DTD/svg10.dtd">
<svg version="1.0" xmlns="http://www.w3.org/2000/svg"
 width="300.000000pt" height="300.000000pt" viewBox="0 0 300.000000 300.000000"
 preserveAspectRatio="xMidYMid meet">
<metadata>
Created by potrace 1.14, written by Peter Selinger 2001-2017
</metadata>
<g transform="translate(0.000000,300.000000) scale(0.100000,-0.100000)"
fill="#000000" stroke="none">
<path d="M1499 2986 c-2 -2 -33 -6 -69 -10 -197 -19 -361 -65 -520 -148 -280
-146 -430 -389 -435 -703 -2 -180 33 -311 120 -446 112 -173 260 -272 648
-430 329 -134 444 -203 504 -307 24 -40 28 -58 28 -127 0 -65 -4 -89 -24 -125
-31 -60 -84 -105 -151 -132 -82 -32 -308 -34 -425 -4 -77 20 -106 30 -114 40
-5 6 -29 68 -55 138 -52 145 -59 160 -101 206 -45 51 -100 75 -175 78 -110 5
-177 -39 -211 -138 -16 -47 -18 -83 -16 -303 2 -237 3 -253 25 -300 48 -104
164 -175 350 -215 135 -29 153 -30 372 -34 201 -4 304 2 425 25 33 6 70 13 83
15 107 20 299 101 400 169 216 144 343 353 370 607 30 289 -43 509 -231 689
-44 43 -170 139 -182 139 -1 0 -31 16 -65 35 -34 19 -114 55 -178 81 -65 25
-126 49 -137 54 -11 5 -56 23 -100 40 -214 83 -341 168 -381 253 -28 61 -32
152 -9 200 52 109 147 147 353 142 131 -3 277 -32 294 -58 4 -6 22 -55 39
-107 44 -132 81 -202 129 -243 105 -90 284 -68 342 41 33 61 39 112 39 335 0
217 -4 245 -39 317 -53 107 -183 172 -417 212 -55 9 -478 21 -486 14z"/>
</g>
</svg>
